<svg width="24" height="24" viewBox="0 0 24 24" fill="none" xmlns="http://www.w3.org/2000/svg">
<path d="M17.507 14.3074L17.498 14.3824C15.299 13.2864 15.069 13.1404 14.785 13.5664C14.588 13.8614 14.014 14.5304 13.841 14.7284C13.666 14.9234 13.492 14.9384 13.195 14.8034C12.895 14.6534 11.932 14.3384 10.792 13.3184C9.904 12.5234 9.308 11.5484 9.132 11.2484C8.839 10.7424 9.452 10.6704 10.01 9.61443C10.11 9.40443 10.059 9.23943 9.985 9.09043C9.91 8.94043 9.313 7.47043 9.063 6.88443C8.823 6.30043 8.576 6.37443 8.391 6.37443C7.815 6.32443 7.394 6.33243 7.023 6.71843C5.409 8.49243 5.816 10.3224 7.197 12.2684C9.911 15.8204 11.357 16.4744 14.001 17.3824C14.715 17.6094 15.366 17.5774 15.881 17.5034C16.455 17.4124 17.648 16.7824 17.897 16.0774C18.152 15.3724 18.152 14.7874 18.077 14.6524C18.003 14.5174 17.807 14.4424 17.507 14.3074Z" fill="#ADB1B8"/>
<path d="M20.52 3.44943C12.831 -3.98357 0.106 1.40743 0.101 11.8934C0.101 13.9894 0.65 16.0334 1.696 17.8384L0 24.0004L6.335 22.3484C14.24 26.6184 23.996 20.9484 24 11.8994C24 8.72343 22.76 5.73443 20.505 3.48843L20.52 3.44943ZM22.002 11.8664C21.996 19.4994 13.617 24.2664 6.99 20.3704L6.63 20.1564L2.88 21.1314L3.885 17.4864L3.646 17.1114C-0.478 10.5464 4.26 1.96643 12.072 1.96643C13.3766 1.96315 14.6688 2.21866 15.874 2.71816C17.0791 3.21766 18.1733 3.95124 19.093 4.87643C20.0178 5.79001 20.7513 6.87864 21.2507 8.07878C21.7502 9.27891 22.0056 10.5665 22.002 11.8664Z" fill="#ADB1B8"/>
</svg>
